<svg width="35" height="29" viewBox="0 0 35 29" fill="none" xmlns="http://www.w3.org/2000/svg">
<path d="M5.95 16.125H10.9M1 9.625L4.3 11.25L6.39656 5.05562C6.82931 3.77703 7.04569 3.13774 7.44703 2.66509C7.80143 2.24772 8.25656 1.92465 8.77068 1.72551C9.35289 1.5 10.0371 1.5 11.4056 1.5H23.5944C24.9629 1.5 25.6471 1.5 26.2293 1.72551C26.7434 1.92465 27.1986 2.24772 27.553 2.66509C27.9543 3.13774 28.1707 3.77703 28.6034 5.05562L30.7 11.25L34 9.625M24.1 16.125H29.05M8.92 11.25H26.08C28.8523 11.25 30.2384 11.25 31.2973 11.7813C32.2287 12.2487 32.9859 12.9945 33.4605 13.9118C34 14.9546 34 16.3197 34 19.05V23.4375C34 24.1926 34 24.5701 33.9366 24.884C33.6762 26.1733 32.6529 27.1811 31.3438 27.4376C31.025 27.5 30.6417 27.5 29.875 27.5H29.05C27.2275 27.5 25.75 26.0449 25.75 24.25C25.75 23.8013 25.3806 23.4375 24.925 23.4375H10.075C9.61937 23.4375 9.25 23.8013 9.25 24.25C9.25 26.0449 7.77254 27.5 5.95 27.5H5.125C4.35832 27.5 3.97498 27.5 3.6562 27.4376C2.34712 27.1811 1.3238 26.1733 1.06341 24.884C1 24.5701 1 24.1926 1 23.4375V19.05C1 16.3197 1 14.9546 1.53952 13.9118C2.01409 12.9945 2.77134 12.2487 3.70275 11.7813C4.76161 11.25 6.14774 11.25 8.92 11.25Z" stroke="#7A489D" stroke-width="2" stroke-linecap="round" stroke-linejoin="round"/>
</svg>
