<svg width="32" height="32" viewBox="0 0 32 32" fill="none" xmlns="http://www.w3.org/2000/svg">
<path d="M19.1166 6.95237C20.5766 7.23595 21.9184 7.9468 22.9702 8.99394C24.022 10.0411 24.7361 11.3769 25.0209 12.8303M19.1166 1C22.1499 1.33547 24.9785 2.68776 27.1379 4.83483C29.2973 6.9819 30.6592 9.79614 31 12.8155M13.402 18.6534C11.606 16.8653 10.1877 14.8435 9.14738 12.6863C9.05789 12.5008 9.01315 12.408 8.97877 12.2906C8.85661 11.8734 8.94436 11.3611 9.19849 11.0078C9.27 10.9084 9.35543 10.8233 9.52631 10.6532C10.0489 10.133 10.3102 9.87286 10.481 9.61129C11.1252 8.62485 11.1252 7.35315 10.481 6.36671C10.3102 6.10513 10.0489 5.84501 9.5263 5.32476L9.23502 5.03478C8.44063 4.24394 8.04344 3.84853 7.61686 3.63373C6.76849 3.20654 5.7666 3.20654 4.91822 3.63373C4.49165 3.84853 4.09445 4.24394 3.30007 5.03478L3.06444 5.26936C2.27278 6.05748 1.87694 6.45155 1.57463 6.98731C1.23917 7.58181 0.997974 8.50516 1.00001 9.18704C1.00185 9.80154 1.12159 10.2215 1.36106 11.0615C2.64801 15.5754 5.07623 19.8349 8.64571 23.3884C12.2152 26.942 16.4938 29.3594 21.028 30.6406C21.8717 30.879 22.2936 30.9982 22.9108 31C23.5958 31.002 24.5233 30.7619 25.1204 30.4279C25.6586 30.127 26.0544 29.7329 26.8461 28.9448L27.0817 28.7102C27.8761 27.9194 28.2733 27.5239 28.4891 27.0993C28.9182 26.2547 28.9182 25.2573 28.4891 24.4127C28.2733 23.988 27.8761 23.5926 27.0817 22.8018L26.7904 22.5118C26.2679 21.9915 26.0066 21.7314 25.7438 21.5613C24.7529 20.92 23.4755 20.92 22.4847 21.5613C22.2219 21.7314 21.9606 21.9915 21.4381 22.5118C21.2672 22.6819 21.1818 22.7669 21.0819 22.8381C20.727 23.0911 20.2124 23.1785 19.7933 23.0569C19.6754 23.0226 19.5822 22.9781 19.3958 22.889C17.229 21.8533 15.1981 20.4414 13.402 18.6534Z" stroke="#7A489D" stroke-width="2" stroke-linecap="round" stroke-linejoin="round"/>
</svg>
