<svg width="31" height="35" viewBox="0 0 31 35" fill="none" xmlns="http://www.w3.org/2000/svg">
<path d="M9.86111 28.7V32.22C9.86111 32.668 9.86111 32.8921 9.77331 33.0632C9.69608 33.2137 9.57285 33.3361 9.42127 33.4128C9.24895 33.5 9.02338 33.5 8.57222 33.5H5.51111C5.05996 33.5 4.83438 33.5 4.66206 33.4128C4.51049 33.3361 4.38725 33.2137 4.31002 33.0632C4.22222 32.8921 4.22222 32.668 4.22222 32.22V28.7M26.7778 28.7V32.22C26.7778 32.668 26.7778 32.8921 26.69 33.0632C26.6127 33.2137 26.4895 33.3361 26.3379 33.4128C26.1656 33.5 25.94 33.5 25.4889 33.5H22.4278C21.9766 33.5 21.751 33.5 21.5787 33.4128C21.4272 33.3361 21.3039 33.2137 21.2267 33.0632C21.1389 32.8921 21.1389 32.668 21.1389 32.22V28.7M1 17.5H30M1 7.1H30M6.63889 23.1H9.05556M21.9444 23.1H24.3611M8.73333 28.7H22.2667C24.9736 28.7 26.327 28.7 27.361 28.1768C28.2704 27.7166 29.0098 26.9823 29.4732 26.0792C30 25.0524 30 23.7083 30 21.02V9.18C30 6.49175 30 5.14762 29.4732 4.12085C29.0098 3.21767 28.2704 2.48336 27.361 2.02317C26.327 1.5 24.9736 1.5 22.2667 1.5H8.73333C6.02641 1.5 4.67295 1.5 3.63905 2.02317C2.7296 2.48336 1.99019 3.21767 1.5268 4.12085C1 5.14762 1 6.49175 1 9.18V21.02C1 23.7083 1 25.0524 1.5268 26.0792C1.99019 26.9823 2.7296 27.7166 3.63905 28.1768C4.67295 28.7 6.02641 28.7 8.73333 28.7Z" stroke="#7A489D" stroke-width="2" stroke-linecap="round" stroke-linejoin="round"/>
</svg>
