<svg width="33" height="31" viewBox="0 0 33 31" fill="none" xmlns="http://www.w3.org/2000/svg">
<path d="M11.85 30V18.5547C11.85 17.6885 11.85 17.2553 12.0189 16.9245C12.1675 16.6335 12.4047 16.3969 12.6963 16.2486C13.0279 16.08 13.4619 16.08 14.33 16.08H18.67C19.5381 16.08 19.9721 16.08 20.3037 16.2486C20.5953 16.3969 20.8325 16.6335 20.9811 16.9245C21.15 17.2553 21.15 17.6885 21.15 18.5547V30M1 12.2133L15.012 1.72693C15.5456 1.32759 15.8124 1.12792 16.1054 1.05095C16.3641 0.983015 16.6359 0.983015 16.8946 1.05095C17.1876 1.12792 17.4544 1.32759 17.988 1.72693L32 12.2133M4.10001 9.89333V25.0507C4.10001 26.7831 4.10001 27.6493 4.43789 28.311C4.73509 28.8931 5.20933 29.3663 5.79263 29.6628C6.45576 30 7.32384 30 9.06 30H23.94C25.6762 30 26.5442 30 27.2074 29.6628C27.7907 29.3663 28.2649 28.8931 28.5621 28.311C28.9 27.6493 28.9 26.7831 28.9 25.0507V9.89333L19.476 2.84053C18.4088 2.04185 17.8752 1.64251 17.2892 1.48858C16.7719 1.3527 16.2281 1.3527 15.7108 1.48858C15.1248 1.64251 14.5912 2.04185 13.524 2.84053L4.10001 9.89333Z" stroke="#7A489D" stroke-width="2" stroke-linecap="round" stroke-linejoin="round"/>
</svg>
