<svg width="32" height="32" viewBox="0 0 32 32" fill="none" xmlns="http://www.w3.org/2000/svg">
<path d="M2.6665 9.33331L13.5531 16.9539C14.4346 17.571 14.8754 17.8795 15.3549 17.9991C15.7784 18.1046 16.2213 18.1046 16.6448 17.9991C17.1243 17.8795 17.565 17.571 18.4466 16.9539L29.3332 9.33331M9.0665 26.6666H22.9332C25.1734 26.6666 26.2935 26.6666 27.1491 26.2307C27.9018 25.8472 28.5137 25.2353 28.8972 24.4826C29.3332 23.627 29.3332 22.5069 29.3332 20.2666V11.7333C29.3332 9.4931 29.3332 8.373 28.8972 7.51735C28.5137 6.7647 27.9018 6.15278 27.1491 5.76929C26.2935 5.33331 25.1734 5.33331 22.9332 5.33331H9.0665C6.82629 5.33331 5.70619 5.33331 4.85054 5.76929C4.09789 6.15278 3.48597 6.7647 3.10248 7.51735C2.6665 8.373 2.6665 9.4931 2.6665 11.7333V20.2666C2.6665 22.5069 2.6665 23.627 3.10248 24.4826C3.48597 25.2353 4.09789 25.8472 4.85054 26.2307C5.70619 26.6666 6.82629 26.6666 9.0665 26.6666Z" stroke="#7A489D" stroke-width="2" stroke-linecap="round" stroke-linejoin="round"/>
</svg>
